<svg id="Capa_1" enable-background="new 0 0 497.1 497.1" height="512" viewBox="0 0 497.1 497.1" width="512" xmlns="http://www.w3.org/2000/svg"><g><g id="XMLID_124_"><g><path d="m412.097 0c2.17 0 3.61 1.78 3.61 3.63 0 .88-.33 1.79-1.06 2.52-10.54 21.67-27.92 39.07-49.27 49.66l-.01.01c23.71 27.77 38.03 63.79 38.03 103.17v99.55c0 46.52-19.98 88.36-51.82 117.43-5.32 4.85-5.49 13.16-.39 18.23l26.09 25.93c16.991 16.891 27.821 38.823 31.024 62.3 1.058 7.757-4.97 14.67-12.8 14.67h-301.189c-7.835 0-13.858-6.922-12.798-14.685 1.777-13.008 5.895-25.54 12.112-37.005 4.99-9.22 11.33-17.75 18.91-25.28l25.61-25.45c5.12-5.09 4.93-13.42-.42-18.27-32.13-29.09-52.31-71.12-52.31-117.87v-99.55c0-43.91 17.79-83.65 46.57-112.42 28.771-28.77 68.521-46.57 112.421-46.57z" fill="#918291"/></g></g><g id="XMLID_126_"><g><path d="m412.097 0c2.17 0 3.61 1.78 3.61 3.63 0 .88-.33 1.79-1.06 2.52-10.54 21.67-27.92 39.07-49.27 49.66l-.01.01c23.71 27.77 38.03 63.79 38.03 103.17v99.55c0 46.52-19.98 88.36-51.82 117.43-5.32 4.85-5.49 13.16-.39 18.23l26.09 25.93c16.991 16.891 27.821 38.823 31.024 62.3 1.058 7.757-4.97 14.67-12.8 14.67h-301.189c-7.835 0-13.858-6.922-12.798-14.685 1.777-13.008 5.895-25.54 12.112-37.005 4.99-9.22 11.33-17.75 18.91-25.28l25.61-25.45c5.12-5.09 4.93-13.42-.42-18.27-32.13-29.09-52.31-71.12-52.31-117.87v-99.55c0-43.91 17.79-83.65 46.57-112.42 28.771-28.77 68.521-46.57 112.421-46.57z" fill="#918291"/></g></g><g><g id="XMLID_125_"><g><path d="m412.097 0h-167.69c-43.9 0-83.65 17.8-112.42 46.57-28.78 28.77-46.57 68.51-46.57 112.42v99.55c0 46.75 20.18 88.78 52.31 117.87 5.35 4.85 5.54 13.18.42 18.27l-25.61 25.45c-7.58 7.53-13.92 16.06-18.91 25.28-6.217 11.465-10.336 23.997-12.112 37.005-1.06 7.763 4.962 14.685 12.798 14.685h63.187c1.274-2.948 2.677-5.842 4.21-8.669 4.99-9.22 11.33-17.75 18.91-25.28l25.61-25.45c5.12-5.09 4.93-13.42-.42-18.27-32.13-29.09-52.31-71.12-52.31-117.87v-99.55c0-43.91 17.79-83.65 46.57-112.42.982-.982 1.98-1.949 2.987-2.905v211.572h138.491c.722-1.1 1.334-2.032 1.791-2.728 3.343-2.077 10.188-6.235 24.06-14.429 3.61-2.134 6.976-4.693 10.005-7.609 14.125-13.596 19.771-33.826 14.734-52.804l-8.571-32.243v-3.589c0-37.532-14.612-73.79-41.341-100.137-11.34-11.178-24.27-20.168-38.275-26.763-7.408-3.489-5.099-14.565 3.085-14.842 1.811-.061 3.629-.092 5.455-.092h72.804c12.252-9.897 22.328-22.428 29.353-36.871.73-.73 1.06-1.64 1.06-2.52-.001-1.851-1.441-3.631-3.611-3.631z" fill="#7a6d79"/><path d="m135.137 259.58c13.34 7.88 28.91 17.18 29.46 18.01.75 1.12 18.9 28.79 27.14 41.35 2.51 3.82 6.76 6.11 11.32 6.11h-4.19v33.71c0 4.33 1.16 8.38 3.21 11.86-43.18-16.95-73.83-59.04-73.83-108.17v-6.46l.86-1.14c1.76 1.8 3.78 3.4 6.03 4.73z" fill="#685e68"/><path d="m286.757 325.05c4.56 0 8.81-2.29 11.32-6.11 8.24-12.56 26.39-40.23 27.14-41.35.55-.83 16.12-10.13 29.46-18.01 1.98-1.17 3.78-2.55 5.39-4.1l.5.51v6.46c0 48.63-30.03 90.37-72.52 107.64 1.85-3.36 2.9-7.22 2.9-11.33v-33.71z" fill="#685e68"/><path d="m280.693 306.05v23.208h-81.826v29.502c0 4.33 1.16 8.38 3.21 11.86 4.07 7.02 11.68 11.73 20.38 11.73h44.9c8.92 0 16.69-4.95 20.69-12.26 1.85-3.36 2.9-7.22 2.9-11.33v-52.71z" fill="#f3f0f3"/><path d="m198.867 306.05v52.71c0 4.33 1.16 8.38 3.21 11.86 4.07 7.02 11.68 11.73 20.38 11.73h38.941c-8.7 0-16.31-4.71-20.38-11.73-2.05-3.48-3.21-7.53-3.21-11.86 0-4.81 3.9-8.71 8.71-8.71h40.239c1.411 0 2.807-.091 4.19-.241v-43.759z" fill="#e2dee2"/></g><g><g><path d="m230.489 291.571c-1.335 0-2.686-.356-3.908-1.104-3.533-2.163-4.644-6.78-2.481-10.313l5.27-8.61c3.348-5.457 9.161-8.74 15.556-8.788 6.364-.078 12.259 3.146 15.684 8.546l5.543 8.755c2.216 3.5 1.175 8.133-2.324 10.349-3.5 2.215-8.132 1.175-10.349-2.325l-5.54-8.75c-.877-1.383-2.207-1.558-2.901-1.576-.706.005-2.02.224-2.879 1.625l-5.266 8.604c-1.415 2.312-3.88 3.587-6.405 3.587z" fill="#9c9c9c"/></g></g></g></g><path d="m367.977 227.11-9.41-35.4v-8.22c0-31.39-12.72-59.8-33.29-80.37s-48.99-33.29-80.37-33.29c-62.77 0-113.66 50.89-113.66 113.66v8.22l-9.41 35.4c-2.67 10.05.26 20.55 7.27 27.74 1.76 1.8 3.78 3.4 6.03 4.73 13.34 7.88 28.91 17.18 29.46 18.01.75 1.12 18.9 28.79 27.14 41.35 1.815 2.763 4.547 4.709 7.642 5.584v-2.945h73.76v3.471h13.618c4.56 0 8.81-2.29 11.32-6.11 8.24-12.56 26.39-40.23 27.14-41.35.55-.83 16.12-10.13 29.46-18.01 1.98-1.17 3.78-2.55 5.39-4.1 7.47-7.19 10.66-18.01 7.91-28.37z" fill="#f3f0f3"/><path d="m202.895 186.197c.644-2.423.97-4.919.97-7.426v-4.444c0-9.128 1.08-18.003 3.116-26.507 2.852-11.911 11.546-21.595 23.048-25.803 12.151-4.445 25.27-6.876 38.962-6.876 31.38 0 59.8 12.72 80.37 33.29 1.864 1.864 3.662 3.795 5.394 5.784-5.215-19.622-15.541-37.16-29.478-51.097-18.717-18.717-43.933-30.93-71.964-32.98l-.156.145-.027-.157c-2.716-.194-5.457-.298-8.222-.298-62.77 0-113.66 50.89-113.66 113.66v8.22l-9.41 35.4c-2.67 10.05.26 20.55 7.27 27.74 1.76 1.8 3.78 3.4 6.03 4.73 13.34 7.88 28.91 17.18 29.46 18.01.75 1.12 18.9 28.79 27.14 41.35 2.51 3.82 6.76 6.11 11.32 6.11h73.426s-38.518-55.502-39.268-56.622c-.55-.83-16.12-10.13-29.46-18.01-2.25-1.33-4.27-2.93-6.03-4.73-7.01-7.19-9.94-17.69-7.27-27.74z" fill="#e2dee2"/><path d="m330.587 207.31c3.43 14.34-9.12 29.64-28.03 34.17-18.92 4.53-37.04-3.42-40.47-17.76-3.44-14.34 9.11-29.64 28.03-34.17 18.91-4.53 37.03 3.42 40.47 17.76z" fill="#918291"/><path d="m199.697 189.55c18.92 4.53 31.47 19.83 28.03 34.17-3.43 14.34-21.55 22.29-40.47 17.76-18.91-4.53-31.46-19.83-28.03-34.17 3.44-14.34 21.56-22.29 40.47-17.76z" fill="#918291"/><path d="m294.961 223.72c-3.037-12.66 6.404-26.066 21.672-32.151-7.396-3.388-16.856-4.333-26.516-2.019-18.92 4.53-31.47 19.83-28.03 34.17 3.43 14.34 21.55 22.29 40.47 17.76 2.215-.531 4.349-1.211 6.374-2.019-7.083-3.243-12.292-8.726-13.97-15.741z" fill="#7a6d79"/><path d="m192.101 207.31c1.683-7.014 6.892-12.497 13.974-15.741-2.027-.808-4.161-1.488-6.378-2.019-18.91-4.53-37.03 3.42-40.47 17.76-3.43 14.34 9.12 29.64 28.03 34.17 9.664 2.314 19.124 1.37 26.519-2.017-15.263-6.085-24.703-19.493-21.675-32.153z" fill="#7a6d79"/><g><path d="m226.777 342.28c-4.142 0-7.5-3.358-7.5-7.5v-19.53c0-4.142 3.358-7.5 7.5-7.5s7.5 3.358 7.5 7.5v19.53c0 4.142-3.358 7.5-7.5 7.5z" fill="#cbc4cc"/></g><g><path d="m263.037 342.28c-4.142 0-7.5-3.358-7.5-7.5v-19.53c0-4.142 3.358-7.5 7.5-7.5s7.5 3.358 7.5 7.5v19.53c0 4.142-3.358 7.5-7.5 7.5z" fill="#cbc4cc"/></g></g></svg>